
     About.a.Boy.2002.720p.BluRay.x264.AC-3.mkv-Zen_Bud

Format                           : Matroska
Format version                   : Version 2
File size                        : 1.77 GiB
Duration                         : 1h 41mn
Overall bit rate                 : 2 500 Kbps
Writing application              : mkvmerge v5.0.1 ('Es ist 
Writing library                  : libebml v1.2.2 + libmatroska v1.3.0

Video

Format                           : AVC
Format profile                   : High@L4.1
Format settings, CABAC           : Yes
Format settings, ReFrames        : 4 frames
Codec ID                         : V_MPEG4
Duration                         : 1h 41mn
Bit rate                         : 2 307 Kbps
Width                            : 1 280 pixels
Height                           : 544 pixels
Display aspect ratio             : 2.35:1
Frame rate                       : 23.976 fps
Color space                      : YUV
Chroma subsampling               : 4:2:0
Bit depth                        : 8 bits
Scan type                        : Progressive
Bits/(Pixel*Frame)               : 0.138
Stream size                      : 1.60 GiB (90%)
Writing library                  : x264 core 119 r2106 07efeb4
Encoding settings                : cabac=1 / ref=3 / deblock=1:0:0 / analyse=0x3:0x113 

Audio

Format                           : AC-3
Duration                         : 1h 41mn
Bit rate mode                    : Constant
Bit rate                         : 192 Kbps
Channel(s)                       : 6 channels
Channel positions                : Front: L C R, Side: L R, LFE
Sampling rate                    : 48.0 KHz
Bit depth                        : 16 bits
Compression mode                 : Lossy
Stream size                      : 139 MiB (8%)
Language                         : English

Text

Format                           : UTF-8
Codec ID                         : S_TEXT/UTF8
Codec ID/Info                    : UTF-8 Plain Text
Language                         : Swedish

=====================================================================================

Based on Nick Hornby's best-selling novel, About A Boy is the story of a cynical, 
immature young man who is taught how to act like a grown-up by a little boy 

=====================================================================================
 
http://www.imagebam.com/image/67fb1b158288891 
http://www.imagebam.com/image/0bbddb158288893 
http://www.imagebam.com/image/e98b08158288896 
http://www.imagebam.com/image/86b583158288898 
http://www.imagebam.com/image/3c711d158288903